With: Marion Cotillard, Matthias Schoenaerts and Bouli Lanners

Als Alain van Versch bijgenaamd Ali (Matthias Schoenaerts) uit nood met zijn zoontje van 5 onderdak zoekt bij zijn zus in Antibes in het zuiden van Frankrijk, ontmoet hij in een nachtclub de mooie Stéphanie (Marion Cotillard). Als orka-trainster heeft ze een bijzonder beroep. Hun levens hebben niets gemeen, tot het noodlot toeslaat en er een speciale relatie ontstaat, sensueel en met bijzondere spelregels. Dan krijgt hij het aanbod om deel te nemen aan clandestiene gevechten. Stéphanie werpt zich op als zijn manager.

Put in charge of his young son, Ali leaves Belgium for Antibes to live with his sister and her husband as a family. Ali's bond with Stephanie, a killer whale trainer, grows deeper after Stephanie suffers a horrible accident. 
 
http://www.imdb.com/title/tt2053425	

------------------------ Dutch Friends ------------------------
---------------------------------------------------------------
- Bezoek ook eens mijn vrienden op:  http://www.Film-Test.nl --
----- voor mijn Nederlandse Sync. ondertitels ---- en meer ----
------- http://www.Film-Test.nl ---- Over Films en meer -------
---------------------------------------------------------------

General:

Complete name                    : Rust and BoneRust and Bone.avi
Format                           : AVI
Format/Info                      : Audio Video Interleave
File size                        : 2.03 GiB
Duration                         : 1h 57mn
Overall bit rate                 : 2 475 Kbps

Video:

Format                           : MPEG-4 Visual
Format profile                   : Simple@L3
Format settings, BVOP            : No
Format settings, QPel            : No
Format settings, GMC             : No warppoints
Format settings, Matrix          : Default (H.263)
Codec ID                         : XVID
Codec ID/Hint                    : XviD
Duration                         : 1h 57mn
Bit rate                         : 2 016 Kbps
Width                            : 720 pixels
Height                           : 304 pixels
Display aspect ratio             : 2.35:1
Frame rate                       : 25.000 fps
Color space                      : YUV
Chroma subsampling               : 4:2:0
Bit depth                        : 8 bits
Scan type                        : Progressive
Compression mode                 : Lossy
Bits/(Pixel*Frame)               : 0.368
Stream size                      : 1.65 GiB (81%)
Writing library                  : XviD 1.1.2 (UTC 2006-11-01)

Audio:

Format                           : AC-3
Format/Info                      : Audio Coding 3
Mode extension                   : CM (complete main)
Codec ID                         : 2000
Duration                         : 1h 57mn
Bit rate mode                    : Constant
Bit rate                         : 448 Kbps
Channel(s)                       : 6 channels
Channel positions                : Front: L C R, Side: L R, LFE
Sampling rate                    : 48.0 KHz
Bit depth                        : 16 bits
Compression mode                 : Lossy
Stream size                      : 376 MiB (18%)
Alignment                        : Aligned on interleaves
Interleave, duration             : 32 ms (0.80 video frame)
Interleave, preload duration     : 320 ms